<?xml version="1.0" encoding="iso-8859-1"?>
<!-- Generator: Adobe Illustrator 19.0.0, SVG Export Plug-In . SVG Version: 6.00 Build 0)  -->
<svg xmlns="http://www.w3.org/2000/svg" xmlns:xlink="http://www.w3.org/1999/xlink" version="1.1" id="Layer_1" x="0px" y="0px" viewBox="0 0 503.607 503.607" style="enable-background:new 0 0 503.607 503.607;" xml:space="preserve" width="512px" height="512px">
<g transform="translate(1 1)">
	<g>
		<g>
			<path d="M485.82,427.066V74.541c10.072-8.393,16.787-20.144,16.787-33.574C502.607,17.466,484.141-1,460.639-1     c-13.43,0-26.02,6.715-33.574,16.787H74.541C66.148,5.715,54.397-1,40.967-1C17.466-1-1,17.466-1,40.967     c0,13.43,6.715,26.02,16.787,33.574v352.525C5.715,435.459-1,447.21-1,460.639c0,23.502,18.466,41.967,41.967,41.967     c13.43,0,26.02-6.715,33.574-16.787h352.525c8.393,10.072,20.144,16.787,33.574,16.787c23.502,0,41.967-18.466,41.967-41.967     C502.607,447.21,495.892,434.62,485.82,427.066z M460.639,485.82c-9.233,0-17.626-5.036-21.823-12.59     c-1.679-2.518-4.197-4.197-7.554-4.197H69.505c-2.518,0-5.036,1.679-6.715,4.197c-5.036,7.554-12.59,12.59-21.823,12.59     c-14.269,0-25.18-10.911-25.18-25.18c0-8.393,5.036-16.787,12.59-20.984c2.518-1.679,4.197-4.197,4.197-7.554V70.344     c0-3.357-1.679-5.875-4.197-7.554c-7.554-4.197-12.59-12.59-12.59-21.823c0-14.269,10.911-25.18,25.18-25.18     c9.233,0,16.787,5.036,20.984,12.59c1.679,2.518,4.197,4.197,7.554,4.197h361.757c3.357,0,5.875-1.679,7.554-4.197     c5.036-7.554,12.59-12.59,21.823-12.59c14.269,0,25.18,10.911,25.18,25.18c0,9.233-5.036,17.626-12.59,21.823     c-2.518,1.679-4.197,4.197-4.197,7.554v360.918c0,3.357,1.679,5.875,4.197,7.554c7.554,5.036,12.59,12.59,12.59,21.823     C485.82,474.908,474.908,485.82,460.639,485.82z" fill="#00d1b2"/>
			<path d="M443.852,49.361H57.754c-5.036,0-8.393,3.357-8.393,8.393v386.098c0,5.036,3.357,8.393,8.393,8.393h386.098     c5.036,0,8.393-3.357,8.393-8.393V57.754C452.246,52.718,448.888,49.361,443.852,49.361z M435.459,435.459H66.148V66.148h369.311     V435.459z" fill="#00d1b2"/>
			<path d="M99.721,141.688c2.518,0,4.197-0.839,5.875-2.518l33.574-33.574c3.357-3.357,3.357-8.393,0-11.751     c-3.357-3.357-8.393-3.357-11.751,0L93.846,127.42c-3.357,3.357-3.357,8.393,0,11.751     C95.525,140.849,97.203,141.688,99.721,141.688z" fill="#00d1b2"/>
			<path d="M99.721,183.656c2.518,0,4.197-0.839,5.875-2.518l16.787-16.787c3.357-3.357,3.357-8.393,0-11.751s-8.393-3.357-11.751,0     l-16.787,16.787c-3.357,3.357-3.357,8.393,0,11.751C95.525,182.816,97.203,183.656,99.721,183.656z" fill="#00d1b2"/>
			<path d="M144.207,130.777c1.679,1.679,3.357,2.518,5.875,2.518s4.197-0.839,5.875-2.518l25.18-25.18     c3.357-3.357,3.357-8.393,0-11.751s-8.393-3.357-11.751,0l-25.18,25.18C140.849,122.384,140.849,127.42,144.207,130.777z" fill="#00d1b2"/>
			<path d="M99.721,225.623c2.518,0,4.197-0.839,5.875-2.518l75.541-75.541c3.357-3.357,3.357-8.393,0-11.751     c-3.357-3.357-8.393-3.357-11.751,0l-75.541,75.541c-3.357,3.357-3.357,8.393,0,11.751     C95.525,224.784,97.203,225.623,99.721,225.623z" fill="#00d1b2"/>
			<path d="M208.836,116.508c2.518,0,4.197-0.839,5.875-2.518l8.393-8.393c3.357-3.357,3.357-8.393,0-11.751s-8.393-3.357-11.751,0     l-8.393,8.393c-3.357,3.357-3.357,8.393,0,11.751C204.639,115.669,206.318,116.508,208.836,116.508z" fill="#00d1b2"/>
			<path d="M124.902,141.688c0,5.036,3.357,8.393,8.393,8.393s8.393-3.357,8.393-8.393c0-4.197-3.357-8.393-8.393-8.393     S124.902,136.652,124.902,141.688z" fill="#00d1b2"/>
			<path d="M192.049,133.295c5.036,0,8.393-3.357,8.393-8.393c0-4.197-3.357-8.393-8.393-8.393s-8.393,3.357-8.393,8.393     S187.013,133.295,192.049,133.295z" fill="#00d1b2"/>
		</g>
	</g>
</g>
<g>
</g>
<g>
</g>
<g>
</g>
<g>
</g>
<g>
</g>
<g>
</g>
<g>
</g>
<g>
</g>
<g>
</g>
<g>
</g>
<g>
</g>
<g>
</g>
<g>
</g>
<g>
</g>
<g>
</g>
</svg>
