<?xml version="1.0" ?><!DOCTYPE svg  PUBLIC '-//W3C//DTD SVG 1.1//EN'  'http://www.w3.org/Graphics/SVG/1.1/DTD/svg11.dtd'><svg id="Layer_1" style="enable-background:new 0 0 126 126;" version="1.1" viewBox="0 0 126 126" xml:space="preserve" xmlns="http://www.w3.org/2000/svg" xmlns:xlink="http://www.w3.org/1999/xlink"><style type="text/css">
	.st0{fill:#F4F4F4;}
	.st1{fill:none;stroke:#00d1b2;stroke-width:4;stroke-linecap:round;stroke-linejoin:round;stroke-miterlimit:10;}
</style><circle class="st0" cx="63" cy="63" r="62"/><g><g><g><path class="st1" d="M59.6,87.4c6-2.7,12.3-7.1,18.2-13C92.2,60,101.8,38.7,94.5,31.5c-7.2-7.2-28.6,2.3-42.9,16.7     c-5.8,5.8-10.3,12.2-13,18.2L59.6,87.4z"/><circle class="st1" cx="67.4" cy="58.6" r="7.6"/></g><g><g><polyline class="st1" points="49.7,50.1 37,48.9 29.1,56.8 38.6,66.4     "/></g><g><polyline class="st1" points="75.9,76.3 77.1,89 69.2,96.9 59.6,87.4     "/></g></g></g><g><path class="st1" d="M37.1,78.3C30,86.2,29,97,29,97s10.8-1,18.7-8.1L37.1,78.3z"/></g></g></svg>
